# AST/ASF file generated using VICON BodyLanguage
# -----------------------------------------------
:version 1.10
:name VICON
:units
  mass 1.0
  length 0.45
  angle deg
:documentation
   .ast/.asf automatically generated from VICON data using
   VICON BodyBuilder and BodyLanguage model FoxedUp or BRILLIANT.MOD
:root
   order TX TY TZ RX RY RZ
   axis XYZ
   position 0 0 0  
   orientation 0 0 0 
:bonedata
  begin
     id 1 
     name lhipjoint
     direction 0.543289 -0.788407 0.288535 
     length 2.57127 
     axis 0 0 0  XYZ
  end
  begin
     id 2 
     name lfemur
     direction 0.34202 -0.939693 0  
     length 8.47298  
     axis 0 0 20  XYZ
    dof rx ry rz
    limits (-160.0 20.0)
           (-70.0 70.0)
           (-60.0 70.0)
  end
  begin
     id 3 
     name ltibia
     direction 0.34202 -0.939693 0   
     length 8.13367   
     axis 0 0 20   XYZ
    dof rx
    limits (-10.0 170.0)
  end
  begin
     id 4 
     name lfoot
     direction 0.114037 -0.313314 0.942778   
     length 2.67113   
     axis -90 7.62852e-016 20   XYZ
    dof rx rz
    limits (-45.0 90.0)
           (-70.0 20.0)
  end
  begin
     id 5 
     name ltoes
     direction 1.536e-011 -4.21847e-011 1   
     length 1.32217   
     axis -90 7.62852e-016 20   XYZ
    dof rx
    limits (-90.0 20.0)
  end
  begin
     id 6 
     name rhipjoint
     direction -0.571293 -0.770752 0.282074   
     length 2.63017  
     axis 0 0 0  XYZ 
  end
  begin
     id 7 
     name rfemur
     direction -0.34202 -0.939693 0   
     length 8.60885   
     axis 0 0 -20   XYZ
    dof rx ry rz
    limits (-160.0 20.0)
           (-70.0 70.0)
           (-70.0 60.0)
  end
  begin
     id 8 
     name rtibia
     direction -0.34202 -0.939693 0   
     length 8.07673   
     axis 0 0 -20   XYZ
    dof rx
    limits (-10.0 170.0)
 end
 begin
     id 9 
     name rfoot
     direction -0.121336 -0.333368 0.934956   
     length 2.81602  
     axis -90 -7.62852e-016 -20   XYZ
    dof rx rz
    limits (-45.0 90.0)
           (-20.0 70.0)
  end
  begin
     id 10 
     name rtoes
     direction -1.53491e-011 -4.21808e-011 1   
     length 1.38905   
     axis -90 -7.62852e-016 -20   XYZ
    dof rx
    limits (-90.0 20.0)
  end
  begin
     id 11 
     name lowerback
     direction 0.0136776 0.999869 -0.00861835   
     length 2.14087   
     axis 0 0 0   XYZ
    dof rx ry rz
    limits (-20.0 45.0)
           (-30.0 30.0)
           (-30.0 30.0)
  end
  begin
     id 12 
     name upperback
     direction -0.00789158 0.999804 0.0181308   
     length 2.14151   
     axis 0 0 0   XYZ
    dof rx ry rz
    limits (-20.0 45.0)
           (-30.0 30.0)
           (-30.0 30.0)
  end
  begin
     id 13 
     name thorax
     direction -0.0135231 0.999666 0.0220247   
     length 2.13644   
     axis 0 0 0   XYZ
    dof rx ry rz
    limits (-20.0 45.0)
           (-30.0 30.0)
           (-30.0 30.0)
  end
  begin
     id 14 
     name lowerneck
     direction -0.0392259 0.997317 0.0618018   
     length 1.65045   
     axis 0 0 0   XYZ
    dof rx ry rz
    limits (-20.0 45.0)
           (-30.0 30.0)
           (-30.0 30.0)
  end
  begin
     id 15 
     name upperneck
     direction 0.0765547 0.994276 -0.0745319   
     length 1.66045   
     axis 0 0 0   XYZ
    dof rx ry rz
    limits (-20.0 45.0)
           (-30.0 30.0)
           (-30.0 30.0)
  end
  begin
     id 16
     name head
     direction 0.0241564 0.999031 -0.036785  
     length 1.66594  
     axis 0 0 0   XYZ
    dof rx ry rz
    limits (-20.0 45.0)
           (-30.0 30.0)
           (-30.0 30.0)
  end
  begin
     id 17 
     name lclavicle
     direction 0.967398 0.249018 0.0461573  
     length 3.75176  
     axis 0 0 0   XYZ
    dof ry rz
    limits (-20.0 10.0)
           (0.0 20.0)
  end
  begin
     id 18 
     name lhumerus
     direction 1 -4.48963e-011 -3.05005e-027   
     length 5.93342   
     axis 180 -30 -90   XYZ
    dof rx ry rz
    limits (-60.0 90.0)
           (-90.0 90.0)
           (-90.0 90.0)
  end
  begin
     id 19
     name lradius
     direction 1 -4.48957e-011 1.07006e-026   
     length 3.94763   
     axis 180 -30 -90   XYZ
    dof rx
    limits (-10.0 170.0)
  end
  begin
     id 20
     name lwrist
     direction 1 -4.48978e-011 1.92422e-026   
     length 1.97382   
     axis -1.18182e-014 90 90   XYZ
    dof ry
    limits (-180.0 0.0)
 end
  begin
     id 21 
     name lhand
     direction 1 -4.48931e-011 3.84844e-026   
     length 0.560187   
     axis -2.45563e-014 90 90   XYZ
    dof rx rz
    limits (-90.0 90.0)
           (-45.0 45.0)
  end
  begin
     id 22 
     name lfingers
     direction 1 -4.48952e-011 7.69687e-026   
     length 0.451637   
     axis -4.91126e-014 90 90   XYZ
    dof rx
    limits (0.0 90.0)
  end
  begin
     id 23
     name lthumb
     direction 0.707107 -6.34901e-011 0.707107   
     length 0.648463   
     axis -90 45 2.85299e-015   XYZ
    dof rx rz
    limits (-45.0 45.0)
           (-45.0 45.0)
  end
  begin
     id 24 
     name rclavicle
     direction -0.965946 0.258716 0.00371831   
     length 3.63667  
     axis 0 0 0   XYZ 
    dof ry rz
    limits (-10.0 20.0)
           (-20.0 0.0)
  end
  begin
     id 25 
     name rhumerus
     direction -1 -4.48966e-011 -1.78361e-028  
     length 6.28647   
     axis 180 30 90   XYZ
    dof rx ry rz
    limits (-90.0 60.0)
           (-90.0 90.0)
           (-90.0 90.0)
  end
  begin
     id 26 
     name rradius
     direction -1 -4.48961e-011 1.05248e-026   
     length 3.81645   
     axis 180 30 90   XYZ
    dof rx
    limits (-10.0 170.0)
  end
  begin
     id 27 
     name rwrist
     direction -1 -4.48979e-011 1.92422e-026   
     length 1.90822   
     axis -1.18182e-014 -90 -90   XYZ
    dof ry
    limits (-180.0 0.0)
  end
  begin
     id 28
     name rhand
     direction -1 -4.48937e-011 3.84844e-026   
     length 0.646185   
     axis -2.45563e-014 -90 -90   XYZ
    dof rx rz
    limits (-90.0 90.0)
           (-45.0 45.0)
  end
  begin
     id 29
     name rfingers
     direction -1 -4.48953e-011 7.69687e-026   
     length 0.520971   
     axis -4.91126e-014 -90 -90   XYZ
    dof rx
    limits (0.0 90.0)
  end
  begin
     id 30
     name rthumb
     direction -0.707107 -6.3494e-011 0.707107   
     length 0.748013   
     axis -90 -45 -2.85299e-015   XYZ
    dof rx rz
    limits (-45.0 45.0)
           (-45.0 45.0)
  end
:hierarchy
  begin
    root lhipjoint rhipjoint lowerback
    lhipjoint lfemur
    lfemur ltibia
    ltibia lfoot
    lfoot ltoes
    rhipjoint rfemur
    rfemur rtibia
    rtibia rfoot
    rfoot rtoes
    lowerback upperback
    upperback thorax
    thorax lowerneck lclavicle rclavicle
    lowerneck upperneck
    upperneck head
    lclavicle lhumerus
    lhumerus lradius
    lradius lwrist
    lwrist lhand lthumb
    lhand lfingers
    rclavicle rhumerus
    rhumerus rradius
    rradius rwrist
    rwrist rhand rthumb
    rhand rfingers
  end

#!OML:ASF H:\HAZMAT1\Patient Classification 1\Patient 3\Session 1\dancer.ASF
:FULLY-SPECIFIED
:DEGREES
1
upperback -2.225210 -3.762350 -1.105640
rfoot -31.545401 -26.413799
lradius 31.751301
lthumb 16.729200 45.227798
rradius 34.990200
lwrist -13.765900
rhand -17.924999 -16.198900
rhumerus -54.700901 -9.116270 -65.968399
lowerneck -3.760140 3.399620 2.620640
lhand -9.225690 15.928600
ltibia 41.139400
head 1.841320 2.213320 -1.574960
rwrist 11.690300
lfingers 7.125020
rtoes 10.820100
lowerback -1.708520 -2.765090 4.417550
rfingers 7.125020
lclavicle 0.000000 0.000000
upperneck 3.281160 4.551960 -3.964690
rfemur -17.697599 14.182600 16.451099
thorax -1.692970 -1.979350 -3.605870
rclavicle 0.000000 0.000000
rtibia 36.656101
lfoot -11.971600 -0.839241
lhumerus -45.454498 5.493770 76.189301
rthumb 8.342760 -46.014099
root 9.920580 19.021500 3.469200 -163.882004 -83.878304 172.925995
ltoes -5.274150
lfemur -22.546200 -23.213200 -1.264350
2
upperback -2.324800 -3.683130 -1.010480
rfoot -35.017300 -30.352200
lradius 31.329201
lthumb 10.654900 48.706402
rradius 38.327301
lwrist -14.252800
rhand -21.789000 -17.843399
rhumerus -48.117298 -7.771970 -64.190300
lowerneck -4.849910 -0.022003 -0.769116
lhand -15.528600 18.996500
ltibia 41.412300
head 1.919960 -0.002818 -0.047504
rwrist 10.575200
lfingers 7.125020
rtoes 14.122900
lowerback -1.798410 -2.707410 4.303780
rfingers 7.125020
lclavicle -0.000000 0.000000
upperneck 3.509140 0.046617 -0.572113
rfemur -16.130600 6.863980 21.065800
thorax -1.723650 -1.938240 -3.446760
rclavicle -0.000000 0.000000
rtibia 36.107201
lfoot -10.202700 6.352430
lhumerus -43.301300 6.891410 76.782501
rthumb 4.612480 -47.773102
root 10.077100 19.005800 2.675770 4.202540 -82.235901 4.966530
ltoes 3.744210
lfemur -27.896299 -20.653299 0.791020
3
upperback -2.557440 -3.887550 -0.653543
rfoot -35.632099 -31.310101
lradius 26.849001
lthumb 14.546700 46.431198
rradius 43.178699
lwrist -16.487499
rhand -18.425400 -17.558800
rhumerus -42.272800 -4.398610 -71.987701
lowerneck -4.047290 -1.287630 -2.008700
lhand -11.491800 16.961201
ltibia 39.794800
head 1.584400 -0.820553 0.760913
rwrist 8.619370
lfingers 7.125020
rtoes 14.790800
lowerback -2.660880 -2.834250 4.218050
rfingers 7.125020
lclavicle -0.000000 0.000000
upperneck 2.794380 -1.661320 1.488310
rfemur -16.056200 3.506500 22.888700
thorax -1.467970 -2.036660 -3.071070
rclavicle -0.000000 0.000000
rtibia 35.192299
lfoot -13.692000 16.185900
lhumerus -42.856400 9.808380 73.468903
rthumb 7.859730 -47.392700
root 10.126200 18.967899 2.749360 12.974000 -77.601303 -3.357930
ltoes 15.868000
lfemur -29.710899 -22.671101 4.216840
4
upperback -2.668810 -3.721850 -0.053399
rfoot -34.645401 -32.050999
lradius 27.138201
lthumb 15.073300 46.194199
rradius 38.323002
lwrist -15.875500
rhand -17.914600 -17.094601
rhumerus -41.398701 -4.883570 -77.766800
lowerneck -3.440690 -1.781230 -2.130710
lhand -10.945100 16.763000
ltibia 38.184799
head 1.586350 -1.159450 1.163080
rwrist 10.203700
lfingers 7.125020
rtoes 11.525500
lowerback -3.479400 -2.670290 4.820450
rfingers 7.125020
lclavicle 0.000000 0.000000
upperneck 3.013050 -2.378770 2.744440
rfemur -13.684800 3.318460 22.337999
thorax -1.110610 -1.954080 -2.830780
rclavicle 0.000000 0.000000
rtibia 33.388302
lfoot -13.909400 23.055901
lhumerus -43.452900 9.624450 73.663399
rthumb 8.352740 -46.909500
root 10.003500 18.886400 3.826400 23.729799 -76.818100 -14.650200
ltoes 19.003599
lfemur -29.431400 -25.422800 8.797640
5
upperback -2.843190 -3.220400 0.038817
rfoot -32.793098 -35.408001
lradius 30.261000
lthumb 14.416200 46.436501
rradius 30.974400
lwrist -14.161300
rhand -20.411301 -16.992800
rhumerus -46.600201 -8.944190 -72.999199
lowerneck -2.303200 -1.753950 -1.628760
lhand -11.627200 16.957100
ltibia 37.647400
head 1.557080 -1.171670 1.062540
rwrist 14.390300
lfingers 7.125020
rtoes -0.086178
lowerback -3.027210 -2.314000 4.852110
rfingers 7.125020
lclavicle -0.000000 0.000000
upperneck 3.576220 -2.395170 2.680970
rfemur -9.602380 10.250000 15.662700
thorax -1.497030 -1.715950 -2.719940
rclavicle -0.000000 0.000000
rtibia 32.972698
lfoot -23.689199 14.107600
lhumerus -44.619801 7.309900 75.559097
rthumb 5.942780 -46.889400
root 9.799240 18.723000 6.081510 27.332800 -79.029900 -19.922400
ltoes 2.967960
lfemur -23.316099 -23.105900 1.667740
6
upperback -2.413950 -3.740750 0.715617
rfoot -5.187810 -27.594500
lradius 32.241100
lthumb 12.121200 48.187199
rradius 30.584101
lwrist -12.871000
rhand -18.743500 -17.407000
rhumerus -52.439301 -8.625030 -67.851501
lowerneck -2.343310 -1.931180 -1.554170
lhand -14.008200 18.558399
ltibia 35.941502
head 1.857680 -1.298220 0.847029
rwrist 16.816601
lfingers 7.125020
rtoes -9.616480
lowerback -1.489950 -2.776630 4.298630
rfingers 7.125020
lclavicle -0.000000 0.000000
upperneck 4.513230 -2.628630 2.058200
rfemur -11.472100 13.247500 3.242990
thorax -1.874630 -1.953300 -1.651820
rclavicle -0.000000 0.000000
rtibia 36.072701
lfoot -24.235600 10.355200
lhumerus -43.883598 5.082930 73.392403
rthumb 7.552690 -47.252102
root 9.865460 18.989100 8.570880 23.355000 -79.386803 -16.756001
ltoes 10.672400
lfemur -20.323999 -20.891500 -8.429960
7
upperback -1.780410 -4.966660 1.745000
rfoot 19.672701 -21.406099
lradius 29.711599
lthumb 12.088600 48.768200
rradius 29.016001
lwrist -12.860700
rhand -17.306700 -18.542500
rhumerus -56.663799 -7.947380 -65.474998
lowerneck -2.600560 -2.013230 -1.641310
lhand -14.042000 19.137400
ltibia 35.852699
head 2.182140 -1.358040 0.641989
rwrist 17.873899
lfingers 7.125020
rtoes 23.527599
lowerback -0.591614 -3.730320 6.024300
rfingers 7.125020
lclavicle 0.000000 -0.000000
upperneck 5.396780 -2.712870 1.381380
rfemur -17.950800 14.121900 -4.040130
thorax -1.860250 -2.573010 -1.493660
rclavicle 0.000000 -0.000000
rtibia 42.326698
lfoot -22.656300 9.530680
lhumerus -43.879299 7.470840 65.442902
rthumb 8.939380 -48.333099
root 9.918100 19.166901 10.283100 25.332500 -76.410202 -20.549400
ltoes 13.662000
lfemur -18.139500 -21.603800 -13.288000
8
upperback -1.536020 -5.298150 1.879480
rfoot 10.236400 -32.776001
lradius 26.806000
lthumb 12.643800 48.692699
rradius 26.246901
lwrist -14.696300
rhand -15.658400 -19.179001
rhumerus -57.334000 -8.541250 -63.431198
lowerneck -2.900720 -2.348610 -1.802000
lhand -13.466100 19.095400
ltibia 37.933102
head 2.527840 -1.588570 0.595990
rwrist 19.048901
lfingers 7.125020
rtoes 31.048000
lowerback 0.509271 -4.041330 6.219970
rfingers 7.125020
lclavicle 0.000000 -0.000000
upperneck 6.253490 -3.154410 1.210170
rfemur -31.380600 11.772600 -2.122550
thorax -2.254660 -2.742600 -1.378990
rclavicle 0.000000 -0.000000
rtibia 50.236900
lfoot -23.003599 12.604600
lhumerus -43.229099 9.358050 63.387402
rthumb 10.529700 -48.895302
root 10.009500 19.085501 11.322100 23.521500 -75.141403 -20.041401
ltoes 15.945400
lfemur -17.339199 -23.946199 -17.650999
9
upperback -1.503570 -6.262520 0.542803
rfoot 10.215000 -22.559401
lradius 26.194201
lthumb 12.339200 49.339199
rradius 25.264799
lwrist -16.053200
rhand -15.833200 -18.482100
rhumerus -57.862499 -9.068110 -63.062698
lowerneck -2.860700 -1.947000 -1.511540
lhand -13.782100 19.723301
ltibia 37.536900
head 2.675720 -1.336550 0.867342
rwrist 18.791901
lfingers 7.125020
rtoes 23.740499
lowerback 1.057920 -4.765340 4.496770
rfingers 7.125020
lclavicle 0.000000 -0.000000
upperneck 6.698820 -2.712250 2.170090
rfemur -45.838501 5.374470 13.541400
thorax -2.559980 -3.204250 -1.714030
rclavicle 0.000000 -0.000000
rtibia 49.680099
lfoot -21.545401 3.730370
lhumerus -41.941299 8.973710 65.817398
rthumb 10.361100 -48.206799
root 10.027400 19.057100 12.026000 16.347000 -74.925499 -13.038600
ltoes 16.672501
lfemur -16.329000 -15.045800 -21.613600
10
upperback -2.199000 -6.943360 -0.901780
rfoot 23.477699 -2.026050
lradius 26.685101
lthumb 12.831800 48.722801
rradius 20.044001
lwrist -15.785100
rhand -11.391500 -16.149900
rhumerus -59.178600 -12.702900 -54.449501
lowerneck -3.741730 -2.189180 -1.283860
lhand -13.271100 19.137199
ltibia 35.692402
head 3.217570 -1.542930 1.882140
rwrist 20.419701
lfingers 7.125020
rtoes 20.621300
lowerback 1.377170 -5.210710 1.996040
rfingers 7.125020
lclavicle -0.000000 -0.000000
upperneck 7.518820 -3.360240 5.467970
rfemur -59.286900 -15.899000 47.566898
thorax -3.381750 -3.530260 -1.716960
rclavicle -0.000000 -0.000000
rtibia 48.909401
lfoot -18.524000 -1.029540
lhumerus -39.679798 11.937700 61.393299
rthumb 14.643400 -45.612900
root 10.123200 19.188400 12.332500 16.873501 -73.388702 -12.001100
ltoes 16.047800
lfemur -17.466499 -15.615700 -21.136600
11
upperback -2.286450 -5.227100 0.322126
rfoot 24.227200 -1.033390
lradius 20.684099
lthumb 10.899000 53.041698
rradius 22.858801
lwrist -22.681801
rhand -21.182800 -20.405399
rhumerus -39.799000 -4.397740 -52.821999
lowerneck -2.467820 -4.481440 -2.244680
lhand -15.275500 23.344500
ltibia 35.440899
head 2.326780 -3.051410 2.277630
rwrist 19.435200
lfingers 7.125020
rtoes 21.988701
lowerback 2.434570 -3.999170 2.824980
rfingers 7.125020
lclavicle -0.000000 0.000000
upperneck 4.987760 -6.301420 6.439330
rfemur -64.282700 -10.234200 43.417000
thorax -3.942600 -2.680070 -0.928127
rclavicle -0.000000 0.000000
rtibia 50.269100
lfoot -17.287001 0.275119
lhumerus -41.674198 17.329300 51.599602
rthumb 5.197880 -50.321602
root 10.486400 19.312201 12.468200 25.009199 -67.942299 -18.803301
ltoes 15.979600
lfemur -21.072100 -22.542400 -16.360600
